<?xml version="1.0" encoding="utf-8"?>
<!-- Generator: Adobe Illustrator 22.0.1, SVG Export Plug-In . SVG Version: 6.00 Build 0)  -->
<svg version="1.1" id="Layer_1" xmlns="http://www.w3.org/2000/svg" xmlns:xlink="http://www.w3.org/1999/xlink" x="0px" y="0px"
	 viewBox="0 0 1071.1 234.5" style="enable-background:new 0 0 1071.1 234.5;" xml:space="preserve">
<style>path { fill: currentColor; }</style>
<g>
	<path d="M795.1,149.7l-1.8,17.8h-49.5v-46.3h42.3v-10.8h-42.3V67H790l0.9,16.2h11.2V56.4h-85.9h-1.1h-32.3
		c-24.9,54.1-32.6,71.5-37.5,83.1c-4.7-11.2-12.1-27.9-37.5-83.1h-24.3h-9.2h-33V67h16.4c-19.3,31.5-25,41.3-30.3,50.3
		c-4.9-9-10.4-18.9-28.8-50.3H514V56.4h-35.5h-7H434V67h15.7v43.4h-58.6V67H407V56.4h-44.5H265v27.9h10.6l1.1-17.3h29.9v100.5h-16
		v10.6h45v-10.6h-16V67h31l1.4,17.3h10.4l0-17.3h15.9v100.5h-15.9v10.6H407v-10.6h-15.9v-46.3h58.6v46.3H434v10.6h44.5v-10.6h-15.9
		V67h8.8h7h4.9l36.9,61.4v39.1h-16v10.6h44.9v-10.6h-15.9v-39.1L571.7,67h2.7h9.2h6.7v100.5h-15.9v10.6h44.3v-10.6h-16
		c0-64,0-74.1-0.5-96.2c5.2,12.4,11.9,27.2,37.8,83.4h9.9c29.9-63.1,34.4-73.7,38.2-83.4c-0.5,21.1-0.5,31.5-0.5,96.2h-15.7v10.6
		h43.2h1.1H805l1.1-28.1L795.1,149.7z M730.9,167.5h-14.8h-1.1H700V67h15.1h1.1h14.8V167.5z"/>
</g>
<path d="M923.6,9.4c-6.2-1.4-15.3,6.8-19.6,10.5c-5.7,4.8-10.2,10.5-13.9,17c-3.4,5.7-4.8,11.3-3.7,17.9c0.6,3.4,1.7,6.5,3.7,9.4
	c1.4,2,2.3,1.4,0.6,3.7c-1.4,1.7-2.6,3.4-3.7,5.1c-2.3-6.8-7.1-12.2-11.6-17.6c-4-4.8-6.8-11.3-11.6-15.3
	c-9.4-7.9-16.7,4.8-17.9,12.8c-1.7,9.4-0.9,21,3.7,29.5c4.5,8.2,15.8,16.8,25.4,15.9c-1.1,4.8-1.3,9.9-1.3,14.7
	c-5.7-3.7-12.2-6-17.9-9.6c-4.8-3.1-9.9-7.4-15.9-6.5c-10.8,1.4-10.5,13.9-7.7,21.6c3.1,8.8,8.8,17.9,17,22.7
	c7.9,4.5,21.3,6,29.8,1.7c2.6,8.8,4,17.6,4.3,26.7c0,4.5,0,9.4,0,13.9c0,2.6,0,5.4,0,7.9c0,0.9-1.7,2.3-2.3,3.1
	c-5.4,6.5-9.9,13.9-13.9,21.3c-1.4,3.1-8.8,12.2-2.8,14.2c6.2,2.3,8.8-5.7,11.1-9.6c3.1-5.7,6.5-11.6,10.5-17
	c8.8-12.5,19.9-19.6,34-25.5c-5.1,21.8,25.8,35.5,42.8,37.4c7.4,0.9,17.6,0,17.6-9.6c0-9.9-8.5-14.8-14.8-21
	c-6-6.2-9.9-14.8-17.6-19c6.5-2.8,12.8-5.7,18.7-9.4c3.7,9.6,15.6,13.9,25,15.3c9.1,1.1,18.7-0.3,27.2-4c4-2,8.2-4.5,10.2-8.5
	c2.8-6.2-0.6-8.8-5.1-12.5c-9.9-7.9-21.8-11.3-34.3-13c4.3-6,7.4-12.2,10.2-18.7c3.7,4.5,9.9,8.8,15.9,10.2
	c6.2,1.4,12.5-0.9,18.4-1.4c8.8-0.6,20.4,4.3,24.1-6.8c3.4-9.6-6.8-17.6-13.6-22.4c-9.9-7.1-20.4-10.5-32.1-5.4c1.1-2,2.6-3.7,4-5.4
	c2.3-2.6,2.3-2,5.4-0.9c3.7,1.4,8.2,2.6,12.2,2c8.2-1.1,17-5.4,23.5-10.2c4.8-3.4,15-10.8,13-17.6c-1.4-4.8-6.5-7.4-11.3-8.8
	c-11.3-3.1-24.1-1.4-34.6,3.7c-6.2,3.1-12.5,7.7-14.5,14.5c-0.6,2-0.9,3.7-0.6,5.7c0.6,2.6,2.8,3.1,0.9,5.4
	c-2.8,3.1-5.1,6.5-7.1,9.9c-3.7-6.8-5.4-13.6-7.7-21c-1.7-6-4.5-13.6-11.1-16.2c-10.2-3.7-16.2,6.8-18.4,15
	c-2.8,11.3-2.3,24.1,1.4,34.9c3.1,9.1,10.2,18.7,21,17.6c-2.6,4.3-5.4,8.5-8.5,12.5c-2.6-10.2-11.3-17-17-25.2
	c-4.5-6.8-12.5-16.2-21.6-9.1c3.1-8.5-8.8-14.8-15-17.9c-7.9-4-18.4-7.9-27.5-7.1c0.9-0.9,4-0.3,5.4-0.6c1.7-0.3,3.4-0.9,5.1-1.7
	c4-1.7,7.4-4.5,10.2-7.7c5.1-5.4,9.4-12.2,11.3-19.6C934.1,31.8,937.2,11.4,923.6,9.4z M988.3,82.6c2.8,5.1,6.5,10.5,7.1,16.5
	c0.6,7.1-6.5,11.9-11.9,6.8c-3.7-3.4,1.1-4.3,2.6-7.7c2.3-5.1-6-3.4-7.7-1.1c-0.9-2.3-1.7-3.4,0.3-4.8c0.9-0.6,2-1.1,2.8-1.7
	c3.7-3.7-3.1-4.5-5.1-4.3c-0.6-7.9-1.1-19.9,4-26.7C986.6,65.3,985.7,76.9,988.3,82.6z M1059.8,59.3c-4.5,6-10.8,11.3-17.9,14.2
	c-5.7,2.3-16.5,3.4-19.9-3.4c-1.4-3.4,1.7-6.5,4.3-8.5c0.6,0,2,1.7,2.6,2c4.5,2.8,5.4-2,3.1-5.4c5.1-2.6,9.6-3.1,15.3-2.8
	C1050.4,55.3,1058.6,54.5,1059.8,59.3z M1028.3,112.9c-5.4,0.9-9.9,2.6-15,0c-2.3-1.1-6.8-2.6-6.8-5.4c0-3.4,8.8-7.7,11.6-8.8
	c4.8-2,9.4-1.7,14.2,0.3c5.1,2,9.9,4.5,13.9,7.9c2,1.7,5.4,4.3,1.1,5.1C1041.1,113.2,1031.1,112.4,1028.3,112.9z M895,81.4
	c8.5-7.4,21,0,29.8,6c2.8,2,8.8,4.5,4.8,7.9c-2.3,2-5.7,2.8-8.5,3.4c-6,1.1-13.3,1.7-19-0.6C895.3,95.6,881.1,93.6,895,81.4z
	 M961.9,121.2c3.7,3.7,6,7.1,6.5,12.5c0.6,2.3,1.7,6.8-0.6,8.8c-2.3,2-9.9-2.3-12.2-3.7c-3.7-2.3-6.2-6-7.4-10.2
	c-1.4-5.1-2-10.5-1.7-15.9c0-1.4,0.3-10.2,3.1-8.2c2.6,1.7,4,4.8,5.4,7.4C957.1,115.2,959.9,118.6,961.9,121.2z M1019.5,155.8
	c0,6.5-15.3,6.2-19.3,6.2c2.6-5.4-6-5.7-6.8-0.3c-1.1-0.3-2.3-0.9-3.1-1.1c1.4-1.7,4.5-8.2,0.6-9.4c-3.7-1.1-5.7,4.5-5.4,7.1
	c-3.1-1.7-8.5-5.1-7.7-9.4c1.1-4.3,7.9-6.5,11.9-6.8C999.9,141.6,1015,151.5,1019.5,155.8z M913.7,149.2c-1.1-4.8-0.6-8.8,0.6-13.6
	c0.9-3.7,1.7-10.5,5.1-13c6.5,7.9,11.6,18.7,11.1,29.2c-0.3,4.5-2.3,10.5-6.2,13.3c-5.1,3.4-8.2-6.8-9.1-9.9c2-0.3,4-1.1,6-1.7
	c3.1-1.1,0.6-4.8-1.4-5.4C917.4,147.3,915.4,148.1,913.7,149.2z M948,198.9c-6.5-4-14.2-8.2-17-15.3c-3.1-7.1,3.4-14.5,10.5-10.2
	c6,4,8.2,11.1,13.3,15.9c4.8,4.8,14.8,9.4,15.6,17c-0.3-0.9-10.2-3.1-11.1-3.4C956,201.7,951.4,200.9,948,198.9
	C941.2,194.9,950,200,948,198.9z M893.8,181.9c-0.3-13.6-1.7-27.5-4.5-40.8c-3.1-13.6-6.2-26.1-3.7-40c13.9,9.9,39.1,10.8,52.5-0.3
	c-4.3,9.6-3.7,23,0.6,32.3c4,8.5,11.6,13.6,20.1,16.5c-5.7,3.7-11.9,6.8-18.2,9.4c4.3-13.9-10.8-61.6-30.1-40.6
	c-11.6,12.8-13.6,41.1,0.3,53C904.9,174.5,899.2,177.9,893.8,181.9z M843.1,105.6c4.8,2.8,9.4,6.5,13.9,9.1c3.7,2,8.2,2.8,11.3,6
	c2.6,2.6,6,7.7,6.2,11.3c0.6,5.4-7.9,4.5-11.1,4.3c1.1-2.8,0-6.5-3.7-4.5c-1.4,0.6-2,1.4-2.6,2.6c-0.6,1.1-2.6-0.9-2-2.3
	c0.9-2.3,3.1-6-0.6-7.1c-2-0.3-4.3,1.7-4.8,3.4c-2.8-4.3-5.7-9.6-6.8-14.8C842.8,112.6,841.6,104.7,843.1,105.6
	C849.6,109.2,841.1,104.4,843.1,105.6z M872.6,67.8c3.7,3.4,8.2,11.9,6,16.2c-2.3,5.7-15.3-1.7-18.4-4.5c-2.8-2.8-4.3-6.5-5.1-10.5
	c-0.6-2.3,1.7-1.7,3.7-2.6c5.1-1.7-0.6-7.4-4.3-5.4c0-2.3-0.6-5.7,0.6-7.7c1.4-2.3,4.5-3.7,6.2-1.4
	C864.9,57.3,867.7,63.3,872.6,67.8C874.3,69.5,867.2,62.7,872.6,67.8z M921.1,18.8c2.8,3.1,2,9.4,1.4,13c-1.1,9.1-4,16.5-10.5,23
	c-2.3,2.6-6.2,6.2-9.9,5.1c-2.8-0.9-6.2-11.6-4.3-12.2c2.3-0.3,6.8,0,7.7-2.6c0.9-3.1-4.5-5.1-6.8-4.3c0.6-0.9,1.4-3.7,2.3-4
	c0.6,0,1.1,0.6,1.7,0.6c1.4,0,2.6,0.6,3.7,0.6c5.1,0,0.6-5.7-1.4-6.8C906.6,29.3,919.1,16.8,921.1,18.8z"/>
<path d="M139.8,41.2c2,7.4,6.2,14.2,11.3,19.6c2.8,3.1,6.2,6,10.2,7.7c1.7,0.9,3.4,1.4,5.1,1.7c1.4,0.3,4.5-0.3,5.4,0.6
	c-9.1-0.9-19.6,3.1-27.5,7.1c-6.2,3.1-18.2,9.4-15,17.9c-9.1-7.1-17,2.3-21.6,9.1c-5.7,8.2-14.5,15-17,25.2c-3.1-4-6-8.2-8.5-12.5
	c10.8,1.1,17.9-8.5,21-17.6c3.7-10.8,4.3-23.5,1.4-34.9c-2.3-8.2-8.2-18.7-18.4-15c-6.5,2.6-9.4,10.2-11.1,16.2
	c-2.3,7.4-4,14.2-7.7,21c-2-3.4-4.3-6.8-7.1-9.9c-2-2.3,0.3-2.8,0.9-5.4c0.3-2,0-3.7-0.6-5.7c-2-6.8-8.2-11.3-14.5-14.5
	c-10.5-5.1-23.3-6.8-34.6-3.7c-4.8,1.4-9.9,4-11.3,8.8c-2,6.8,8.2,14.2,13,17.6c6.5,4.8,15.3,9.1,23.5,10.2c4,0.6,8.5-0.6,12.2-2
	c3.1-1.1,3.1-1.7,5.4,0.9c1.4,1.7,2.8,3.4,4,5.4c-11.6-5.1-22.1-1.7-32.1,5.4c-6.8,4.8-17,12.8-13.6,22.4
	c3.7,11.1,15.3,6.2,24.1,6.8c6,0.6,12.2,2.8,18.4,1.4c6-1.4,12.2-5.7,15.9-10.2c2.8,6.5,6,12.8,10.2,18.7
	c-12.5,1.7-24.4,5.1-34.3,13c-4.5,3.7-7.9,6.2-5.1,12.5c2,4,6.2,6.5,10.2,8.5c8.5,3.7,18.2,5.1,27.2,4c9.4-1.4,21.3-5.7,25-15.3
	c6,3.7,12.2,6.5,18.7,9.4c-7.7,4.3-11.6,12.8-17.6,19c-6.2,6.2-14.8,11.1-14.8,21c0,9.6,10.2,10.5,17.6,9.6
	c17-2,47.9-15.6,42.8-37.4c14.2,6,25.2,13,34,25.5c4,5.4,7.4,11.3,10.5,17c2.3,4,4.8,11.9,11.1,9.6c6-2-1.4-11.1-2.8-14.2
	c-4-7.4-8.5-14.8-13.9-21.3c-0.6-0.9-2.3-2.3-2.3-3.1c0-2.6,0-5.4,0-7.9c0-4.5,0-9.4,0-13.9c0.3-9.1,1.7-17.9,4.3-26.7
	c8.5,4.3,21.8,2.8,29.8-1.7c8.2-4.8,13.9-13.9,17-22.7c2.8-7.7,3.1-20.1-7.7-21.6c-6-0.9-11.1,3.4-15.9,6.5
	c-5.7,3.7-12.2,6-17.9,9.6c0-4.8-0.2-9.9-1.3-14.7c9.6,0.9,20.9-7.7,25.4-15.9c4.5-8.5,5.4-20.1,3.7-29.5
	c-1.1-7.9-8.5-20.7-17.9-12.8c-4.8,4-7.7,10.5-11.6,15.3c-4.5,5.4-9.4,10.8-11.6,17.6c-1.1-1.7-2.3-3.4-3.7-5.1
	c-1.7-2.3-0.9-1.7,0.6-3.7c2-2.8,3.1-6,3.7-9.4c1.1-6.5-0.3-12.2-3.7-17.9c-3.7-6.5-8.2-12.2-13.9-17c-4.3-3.7-13.3-11.9-19.6-10.5
	C133.9,11.4,137,31.8,139.8,41.2z M90.7,59.6c5.1,6.8,4.5,18.7,4,26.7c-2-0.3-8.8,0.6-5.1,4.3c0.9,0.6,2,1.1,2.8,1.7
	c2,1.4,1.1,2.6,0.3,4.8c-1.7-2.3-9.9-4-7.7,1.1c1.4,3.4,6.2,4.3,2.6,7.7c-5.4,5.1-12.5,0.3-11.9-6.8c0.6-6,4.3-11.3,7.1-16.5
	C85.4,76.9,84.5,65.3,90.7,59.6z M23.8,55.3c5.7-0.3,10.2,0.3,15.3,2.8c-2.3,3.4-1.4,8.2,3.1,5.4c0.6-0.3,2-2,2.6-2
	c2.6,2,5.7,5.1,4.3,8.5c-3.4,6.8-14.2,5.7-19.9,3.4c-7.1-2.8-13.3-8.2-17.9-14.2C12.5,54.5,20.7,55.3,23.8,55.3z M23.8,112.1
	c-4.3-0.9-0.9-3.4,1.1-5.1c4-3.4,8.8-6,13.9-7.9c4.8-2,9.4-2.3,14.2-0.3c2.8,1.1,11.6,5.4,11.6,8.8c0,2.8-4.5,4.3-6.8,5.4
	c-5.1,2.6-9.6,0.9-15,0C40,112.4,30,113.2,23.8,112.1z M169,98.2c-5.7,2.3-13,1.7-19,0.6c-2.8-0.6-6.2-1.4-8.5-3.4
	c-4-3.4,2-6,4.8-7.9c8.8-6,21.3-13.3,29.8-6C190,93.6,175.8,95.6,169,98.2z M116,111.8c1.4-2.6,2.8-5.7,5.4-7.4
	c2.8-2,3.1,6.8,3.1,8.2c0.3,5.4-0.3,10.8-1.7,15.9c-1.1,4.3-3.7,7.9-7.4,10.2c-2.3,1.4-9.9,5.7-12.2,3.7c-2.3-2-1.1-6.5-0.6-8.8
	c0.6-5.4,2.8-8.8,6.5-12.5C111.2,118.6,114,115.2,116,111.8z M81.4,142.1c4,0.3,10.8,2.6,11.9,6.8c0.9,4.3-4.5,7.7-7.7,9.4
	c0.3-2.6-1.7-8.2-5.4-7.1c-4,1.1-0.9,7.7,0.6,9.4c-0.9,0.3-2,0.9-3.1,1.1c-0.9-5.4-9.4-5.1-6.8,0.3c-4,0-19.3,0.3-19.3-6.2
	C56.1,151.5,71.2,141.6,81.4,142.1z M151.4,148.1c-2,0.6-4.5,4.3-1.4,5.4c2,0.6,4,1.4,6,1.7c-0.9,3.1-4,13.3-9.1,9.9
	c-4-2.8-6-8.8-6.2-13.3c-0.6-10.5,4.5-21.3,11.1-29.2c3.4,2.6,4.3,9.4,5.1,13c1.1,4.8,1.7,8.8,0.6,13.6
	C155.7,148.1,153.7,147.3,151.4,148.1z M123.1,198.9c-3.4,2-7.9,2.8-11.3,4c-0.9,0.3-10.8,2.6-11.1,3.4c0.9-7.7,10.8-12.2,15.6-17
	c5.1-4.8,7.4-11.9,13.3-15.9c7.1-4.3,13.6,3.1,10.5,10.2C137.3,190.7,129.6,194.9,123.1,198.9C121.1,200,129.9,194.9,123.1,198.9z
	 M160.2,171.4c13.9-11.9,11.9-40.3,0.3-53c-19.3-21-34.3,26.7-30.1,40.6c-6.2-2.6-12.5-5.7-18.2-9.4c8.5-2.8,16.2-7.9,20.1-16.5
	c4.3-9.4,4.8-22.7,0.6-32.3c13.3,11.1,38.6,10.2,52.5,0.3c2.6,13.9-0.6,26.4-3.7,40c-2.8,13.3-4.3,27.2-4.5,40.8
	C171.9,177.9,166.2,174.5,160.2,171.4z M228,105.6c1.4-0.9,0.3,7.1,0,7.9c-1.1,5.1-4,10.5-6.8,14.8c-0.6-1.7-2.8-3.7-4.8-3.4
	c-3.7,1.1-1.4,4.8-0.6,7.1c0.6,1.4-1.4,3.4-2,2.3s-1.1-2-2.6-2.6c-3.7-2-4.8,1.7-3.7,4.5c-3.1,0.3-11.6,1.1-11.1-4.3
	c0.3-3.7,3.7-8.8,6.2-11.3c3.1-3.1,7.7-4,11.3-6C218.7,112.1,223.2,108.4,228,105.6C230,104.4,221.5,109.2,228,105.6z M198.5,67.8
	c4.8-4.5,7.7-10.5,11.3-15.9c1.7-2.3,4.8-0.9,6.2,1.4c1.1,2,0.6,5.4,0.6,7.7c-3.7-2-9.4,3.7-4.3,5.4c2,0.9,4.3,0.3,3.7,2.6
	c-0.9,4-2.3,7.7-5.1,10.5c-3.1,2.8-16.2,10.2-18.4,4.5C190.3,79.7,194.8,71.2,198.5,67.8C203.9,62.7,196.8,69.5,198.5,67.8z
	 M166.2,31.2c-2,1.1-6.5,6.8-1.4,6.8c1.1,0,2.3-0.6,3.7-0.6c0.6,0,1.1-0.6,1.7-0.6c0.9,0.3,1.7,3.1,2.3,4c-2.3-0.9-7.7,1.1-6.8,4.3
	c0.9,2.6,5.4,2.3,7.7,2.6c2,0.6-1.4,11.3-4.3,12.2c-3.7,1.1-7.7-2.6-9.9-5.1c-6.5-6.5-9.4-13.9-10.5-23c-0.6-3.7-1.4-9.9,1.4-13
	C152,16.8,164.5,29.3,166.2,31.2z"/>
<g>
	<path d="M864.3,82.4v35.5c1.5,0.7,2.8,1.6,4,2.7c2.6,2.6,6,7.7,6.2,11.3c0.5,5-6.7,4.6-10.3,4.3V217c0,3.6-2.9,6.5-6.5,6.5H213.3
		c-3.6,0-6.5-2.9-6.5-6.5v-80.7c-3.6,0.3-10.8,0.6-10.2-4.3c0.3-3.7,3.7-8.8,6.2-11.3c1.2-1.2,2.6-2,4-2.7V82.4
		c-3.4,2-7.9,3.9-11,3.7V217c0,9.6,7.9,17.5,17.5,17.5h644.5c9.6,0,17.5-7.9,17.5-17.5V86.1C872.2,86.3,867.7,84.3,864.3,82.4z"/>
	<path d="M875.3,71.1V17.5c0-9.6-7.9-17.5-17.5-17.5H213.3c-9.6,0-17.5,7.9-17.5,17.5v53.6c0.9-1.3,1.8-2.4,2.7-3.3
		c3.4-3.2,5.8-7.1,8.3-11.1V17.5c0-3.6,2.9-6.5,6.5-6.5h644.5c3.6,0,6.5,2.9,6.5,6.5v39.2c2.4,3.9,4.9,7.9,8.3,11.1
		C873.5,68.7,874.4,69.8,875.3,71.1z"/>
</g>
</svg>
