<?xml version="1.0" encoding="utf-8"?>
<svg version="1.1" xmlns="http://www.w3.org/2000/svg" xmlns:xlink="http://www.w3.org/1999/xlink" x="0px" y="0px"
	 viewBox="0 0 96 64" xml:space="preserve">
<path d="M82.2,25.8c0-0.4,0-0.7,0-1.1C82.2,11,71.2,0,57.6,0c-9.9,0-18.4,5.8-22.3,14.2c-2.2-1.6-4.9-2.5-7.8-2.5
	c-7.3,0-13.2,5.7-13.2,12.8c0,1,0.1,2.1,0.4,3C6.3,29.3,0,36.8,0,45.8C0,56.1,8.2,64,18.3,64h60.1C88.1,64,96,55.7,96,44.9
	C96,35.5,90.1,27.7,82.2,25.8z M42.4,46.1l-1.7,2c-0.4,0.4-1,0.5-1.4,0.1C36.7,45.6,35,42,35,38c0-7.4,5.7-13.4,13-14v-2.6
	c0-0.2,0.2-0.3,0.3-0.2l4.6,4.8c0.1,0.1,0.1,0.3,0,0.3l-4.6,4.8c-0.1,0.1-0.3,0-0.3-0.2v-2.5c-4.8,0.5-8.5,4.5-8.5,9.4
	c0,2.6,1.1,5,2.8,6.7C42.7,45.1,42.8,45.7,42.4,46.1z M50,51.9v2.9c0,0.2-0.2,0.3-0.3,0.2L45,50.2c-0.1-0.1-0.1-0.3,0-0.3l4.6-4.8
	c0.1-0.1,0.3,0,0.3,0.2v2.2l0.9-0.1c4.3-0.9,7.6-4.7,7.6-9.2c0-2.8-1.2-5.2-3.1-7c-0.4-0.4-0.5-0.9-0.1-1.3l1.7-2
	c0.4-0.4,1-0.5,1.4-0.1C61.2,30.2,63,33.9,63,38C63,45.4,57.3,51.4,50,51.9z"/>
</svg>
